HIERARCHY
ROOT Hips
{
	OFFSET 0.00000 0.00000 0.00000
	CHANNELS 6 Xposition Yposition Zposition Zrotation Yrotation Xrotation 
	JOINT LHipJoint
	{
		OFFSET 0 0 0
		CHANNELS 3 Zrotation Yrotation Xrotation
		JOINT LeftHip
		{
			OFFSET 1.29432 -1.88279 0.59910
			CHANNELS 3 Zrotation Yrotation Xrotation
			JOINT LeftKnee
			{
				OFFSET 2.63039 -7.22694 0.00000
				CHANNELS 3 Zrotation Yrotation Xrotation
				JOINT LeftAnkle
				{
					OFFSET 2.70674 -7.43672 0.00000
					CHANNELS 3 Zrotation Yrotation Xrotation
					JOINT LeftToe
					{
						OFFSET 0.15066 -0.41394 2.09027
						CHANNELS 3 Zrotation Yrotation Xrotation
						End Site
						{
							OFFSET 0.00000 -0.00000 1.07518
						}
					}
				}
			}
		}
	}
	JOINT RHipJoint
	{
		OFFSET 0 0 0
		CHANNELS 3 Zrotation Yrotation Xrotation
		JOINT RightHip
		{
			OFFSET -1.37068 -1.88279 0.59910
			CHANNELS 3 Zrotation Yrotation Xrotation
			JOINT RightKnee
			{
				OFFSET -2.57023 -7.06166 0.00000
				CHANNELS 3 Zrotation Yrotation Xrotation
				JOINT RightAnkle
				{
					OFFSET -2.76461 -7.59570 0.00000
					CHANNELS 3 Zrotation Yrotation Xrotation
					JOINT RightToe
					{
						OFFSET -0.24175 -0.64785 2.19719
						CHANNELS 3 Zrotation Yrotation Xrotation
						End Site
						{
							OFFSET -0.00000 -0.00000 1.14803
						}
					}
				}
			}
		}
	}
	JOINT lowerback
	{
		OFFSET 0 0 0
		CHANNELS 3 Zrotation Yrotation Xrotation
		JOINT Chest
		{
			OFFSET -0.03138 2.03983 -0.23106
			CHANNELS 3 Zrotation Yrotation Xrotation
			JOINT Chest2
			{
				OFFSET -0.00325 2.06238 -0.06878
				CHANNELS 3 Zrotation Yrotation Xrotation
				JOINT lowerneck
				{
					OFFSET 0 0 0
					CHANNELS 3 Zrotation Yrotation Xrotation
					JOINT Neck
					{
						OFFSET -0.00002 1.75318 0.18090
						CHANNELS 3 Zrotation Yrotation Xrotation
						JOINT Head
						{
							OFFSET 0.08806 1.75856 -0.25387
							CHANNELS 3 Zrotation Yrotation Xrotation
							End Site
							{
								OFFSET 0.02554 1.78597 -0.10684
							}
						}
					}
				}
				JOINT LeftCollar
				{
					OFFSET 0 0 0
					CHANNELS 3 Zrotation Yrotation Xrotation
					JOINT LeftShoulder
					{
						OFFSET 3.09657 1.33597 -0.04414
CHANNELS 3 Zrotation Xrotation Yrotation
						JOINT LeftElbow
						{
OFFSET 0 -5.342980 -0.000000
CHANNELS 3 Zrotation Xrotation Yrotation
							JOINT LeftWrist
							{
OFFSET 0 -3.672620 -0.000000
CHANNELS 3 Zrotation Xrotation Yrotation
								JOINT lhand
								{
									OFFSET 0 0 0
CHANNELS 3 Zrotation Xrotation Yrotation
									JOINT LFingers
									{
OFFSET 0 -0.599300 -0.000000
CHANNELS 3 Zrotation Xrotation Yrotation
										End Site
										{
OFFSET 0 -0.483170 -0.000000
										}
									}
								}
								JOINT LThumb
								{
OFFSET 0 0.000000 0.000000
CHANNELS 3 Zrotation Xrotation Yrotation
									End Site
									{
OFFSET 0 -0.490550 0.490550
									}
								}
							}
						}
					}
				}
				JOINT RightCollar
				{
					OFFSET 0 0 0
					CHANNELS 3 Zrotation Yrotation Xrotation
					JOINT RightShoulder
					{
						OFFSET -3.16460 1.32273 -0.23382
CHANNELS 3 Zrotation Xrotation Yrotation
						JOINT RightElbow
						{
OFFSET 0 -5.549670 0.033480
CHANNELS 3 Zrotation Xrotation Yrotation
							JOINT RightWrist
							{
OFFSET 0 -3.694010 0.000000
CHANNELS 3 Zrotation Xrotation Yrotation
								JOINT rhand
								{
									OFFSET 0 0 0
CHANNELS 3 Zrotation Xrotation Yrotation
									JOINT RFingers
									{
OFFSET 0 -0.638110 0.000000
CHANNELS 3 Zrotation Xrotation Yrotation
										End Site
										{
OFFSET 0 -0.514460 0.000000
										}
									}
								}
								JOINT RThumb
								{
OFFSET 0 0.000000 0.000000
CHANNELS 3 Zrotation Xrotation Yrotation
									End Site
									{
OFFSET 0 -0.522320 0.522320
									}
								}
							}
						}
					}
				}
			}
		}
	}
}
MOTION
Frames: 6
Frame Time: 0.008333333333333333
9.679577 20.379206 11.416475 -70.614359 -94.734810 73.616664 0.000000 0.000000 0.000000 -13.806415 -5.834039 -8.584172 2.699507 10.191622 29.599731 -0.029898 3.437473 -3.052195 0.124925 -2.267041 -6.244620 0.000000 0.000000 0.000000 7.682054 16.222877 -12.755399 -3.999341 -12.159220 36.298143 0.071419 6.791591 -2.718255 -1.582339 7.920974 -22.482576 -3.418665 -2.351662 0.999268 -1.199024 -3.245186 -1.403750 0.763351 -1.589008 -1.881721 -8.119909 -6.948149 -10.511356 10.361134 -9.768287 12.195983 3.725719 -4.439271 6.343731 0.000000 0.000000 0.000000 66.069237 12.966338 8.591079 35.089313 -44.873607 14.877080 14.517990 -10.294618 -34.293215 0.000000 0.000000 0.000000 -7.125000 0.000000 0.000000 -22.901927 63.721222 10.673195 0.000000 0.000000 0.000000 -64.896278 -2.306047 -27.753103 -27.070790 -38.245989 -9.543162 -33.571452 -24.047241 -24.808158 0.000000 0.000000 0.000000 7.125000 0.000000 0.000000 -2.433402 0.982193 -2.393504
9.700847 20.381163 11.442623 -68.830386 -94.859120 72.041180 0.000000 0.000000 0.000000 -14.255133 -5.631358 -9.131367 2.791614 10.349020 30.115193 -0.006911 1.945384 -2.455233 0.181982 -2.729004 -7.526245 0.000000 0.000000 0.000000 8.225556 16.284847 -13.252544 -4.105351 -12.298736 36.798026 0.084247 7.193888 -2.745026 -1.173010 6.822514 -19.211223 -3.358198 -2.195437 0.815867 -1.333215 -3.029330 -1.345255 0.578881 -1.486557 -1.736481 -8.057905 -7.053272 -10.816806 10.378768 -9.925575 12.395127 3.694214 -4.498011 6.472840 0.000000 0.000000 0.000000 64.212999 12.637457 8.813557 34.241498 -44.258319 14.282912 14.099008 -9.944427 -34.063080 0.000000 0.000000 0.000000 -7.125000 0.000000 0.000000 -23.129279 63.402783 10.611332 0.000000 0.000000 0.000000 -62.774430 -1.806583 -27.450410 -26.745752 -37.934952 -9.342672 -33.061995 -24.072637 -25.035193 0.000000 0.000000 0.000000 7.125000 0.000000 0.000000 -2.088312 0.866086 -2.057538
9.721189 20.373917 11.468149 -66.806551 -95.034916 70.215612 0.000000 0.000000 0.000000 -14.744282 -5.374661 -9.671466 2.885597 10.506868 30.634807 0.004580 0.466596 -1.840693 0.230437 -3.086574 -8.520124 0.000000 0.000000 0.000000 8.739812 16.419163 -13.701806 -4.209991 -12.434285 37.286860 0.100701 7.658246 -2.766231 -0.833668 5.796623 -16.203030 -3.391580 -2.026992 0.623370 -1.438790 -2.797192 -1.285459 0.475939 -1.374643 -1.579126 -8.058377 -7.153760 -11.054750 10.447018 -10.071132 12.517552 3.692347 -4.553535 6.570982 0.000000 0.000000 0.000000 62.312402 12.370988 8.855762 33.489229 -43.700537 13.759706 13.630633 -9.671214 -33.884988 0.000000 0.000000 0.000000 -7.125000 0.000000 0.000000 -23.462038 63.119144 10.617435 0.000000 0.000000 0.000000 -60.708915 -1.342498 -27.201560 -26.385684 -37.585699 -9.122424 -32.916384 -24.322235 -25.410536 0.000000 0.000000 0.000000 7.125000 0.000000 0.000000 -1.932047 0.488025 -1.917347
9.740165 20.357611 11.493680 -65.041369 -95.307193 68.608335 0.000000 0.000000 0.000000 -15.340624 -5.061632 -10.171029 2.979827 10.662265 31.149183 0.003905 -0.949755 -1.224030 0.262288 -3.294945 -9.101024 0.000000 0.000000 0.000000 9.161694 16.499768 -14.114151 -4.313818 -12.566683 37.767501 0.125992 8.243498 -2.685071 -0.607220 4.984433 -13.864707 -3.581346 -1.882203 0.455058 -1.510102 -2.599133 -1.225355 0.497586 -1.277339 -1.424473 -8.156169 -7.230744 -11.215496 10.549341 -10.169244 12.554864 3.724723 -4.591526 6.631143 0.000000 0.000000 0.000000 60.341821 12.303452 8.629635 32.868695 -43.228742 13.332082 13.229335 -9.463571 -33.790901 0.000000 0.000000 0.000000 -7.125000 0.000000 0.000000 -23.803742 62.930102 10.676133 0.000000 0.000000 0.000000 -58.765734 -0.997454 -26.898200 -25.948130 -37.157354 -8.856351 -33.333523 -24.940471 -25.927538 0.000000 0.000000 0.000000 7.125000 0.000000 0.000000 -2.083932 -0.197599 -2.092409
9.758369 20.342357 11.524261 -64.558203 -95.530248 68.202231 0.000000 0.000000 0.000000 -15.944959 -4.816056 -10.607065 3.086678 10.833298 31.720564 -0.011565 -2.221384 -0.653153 0.265742 -3.316316 -9.160745 0.000000 0.000000 0.000000 9.510163 15.965659 -14.668623 -4.420309 -12.699221 38.253402 0.188376 9.207312 -2.104049 -0.866612 5.906514 -16.521509 -3.728131 -1.909761 0.445560 -1.482760 -2.635685 -1.200100 0.606739 -1.294536 -1.384252 -8.386132 -7.189371 -11.395595 10.511782 -10.057357 12.651426 3.756958 -4.541590 6.691583 0.000000 0.000000 0.000000 58.168041 12.673795 8.525231 32.280765 -42.768025 12.931734 13.085716 -9.168562 -33.810545 0.000000 0.000000 0.000000 -7.125000 0.000000 0.000000 -23.977797 62.910603 10.747942 0.000000 0.000000 0.000000 -57.039144 -1.066169 -26.286957 -25.592753 -36.802912 -8.642866 -33.553844 -25.064735 -25.404007 0.000000 0.000000 0.000000 7.125000 0.000000 0.000000 -2.312456 0.323558 -2.300426
9.775704 20.325044 11.554383 -63.846642 -95.647957 67.584109 0.000000 0.000000 0.000000 -16.403100 -4.582647 -11.065882 3.202082 11.014074 32.328676 -0.036686 -3.531210 -0.136298 0.227570 -3.056321 -8.436753 0.000000 0.000000 0.000000 9.969651 15.444038 -15.244137 -4.532426 -12.836470 38.760298 0.250851 10.114405 -1.585511 -0.959728 6.238009 -17.476583 -3.709875 -1.942123 0.454634 -1.493567 -2.679282 -1.195474 0.586348 -1.316673 -1.384375 -8.414139 -7.120095 -11.543949 10.415488 -9.930924 12.696846 3.740568 -4.482048 6.715338 0.000000 0.000000 0.000000 56.129203 13.003748 8.525304 31.664154 -42.274968 12.515331 12.949325 -8.804208 -33.874604 0.000000 0.000000 0.000000 -7.125000 0.000000 0.000000 -24.187989 62.932775 10.860737 0.000000 0.000000 0.000000 -55.180311 -1.170564 -25.822869 -25.205722 -36.412196 -8.412319 -33.802937 -25.032603 -25.165544 0.000000 0.000000 0.000000 7.125000 0.000000 0.000000 -2.504843 0.520261 -2.484382
